<mxfile host="app.diagrams.net" agent="Mozilla/5.0 (X11; Linux x86_64) AppleWebKit/537.36 (KHTML, like Gecko) Chrome/128.0.0.0 Safari/537.36" version="24.7.16">
  <diagram id="C5RBs43oDa-KdzZeNtuy" name="Page-1">
    <mxGraphModel dx="690" dy="390" grid="1" gridSize="10" guides="1" tooltips="1" connect="1" arrows="1" fold="1" page="1" pageScale="1" pageWidth="827" pageHeight="1169" math="0" shadow="0">
      <root>
        <mxCell id="WIyWlLk6GJQsqaUBKTNV-0" />
        <mxCell id="WIyWlLk6GJQsqaUBKTNV-1" parent="WIyWlLk6GJQsqaUBKTNV-0" />
        <mxCell id="wXyPlDKi4pSDwO5Pxs9V-2" style="edgeStyle=orthogonalEdgeStyle;rounded=0;orthogonalLoop=1;jettySize=auto;html=1;entryX=0.5;entryY=0;entryDx=0;entryDy=0;" edge="1" parent="WIyWlLk6GJQsqaUBKTNV-1" source="wXyPlDKi4pSDwO5Pxs9V-0" target="wXyPlDKi4pSDwO5Pxs9V-1">
          <mxGeometry relative="1" as="geometry" />
        </mxCell>
        <mxCell id="wXyPlDKi4pSDwO5Pxs9V-0" value="Mulai" style="strokeWidth=2;html=1;shape=mxgraph.flowchart.terminator;whiteSpace=wrap;" vertex="1" parent="WIyWlLk6GJQsqaUBKTNV-1">
          <mxGeometry x="160" y="170" width="100" height="60" as="geometry" />
        </mxCell>
        <mxCell id="wXyPlDKi4pSDwO5Pxs9V-4" style="edgeStyle=orthogonalEdgeStyle;rounded=0;orthogonalLoop=1;jettySize=auto;html=1;entryX=0.5;entryY=0;entryDx=0;entryDy=0;" edge="1" parent="WIyWlLk6GJQsqaUBKTNV-1" source="wXyPlDKi4pSDwO5Pxs9V-1" target="wXyPlDKi4pSDwO5Pxs9V-3">
          <mxGeometry relative="1" as="geometry" />
        </mxCell>
        <mxCell id="wXyPlDKi4pSDwO5Pxs9V-1" value="Persiapan &lt;br&gt;Alat dan Bahan" style="rounded=0;whiteSpace=wrap;html=1;" vertex="1" parent="WIyWlLk6GJQsqaUBKTNV-1">
          <mxGeometry x="150" y="270" width="120" height="60" as="geometry" />
        </mxCell>
        <mxCell id="wXyPlDKi4pSDwO5Pxs9V-6" style="edgeStyle=orthogonalEdgeStyle;rounded=0;orthogonalLoop=1;jettySize=auto;html=1;entryX=0.5;entryY=0;entryDx=0;entryDy=0;" edge="1" parent="WIyWlLk6GJQsqaUBKTNV-1" source="wXyPlDKi4pSDwO5Pxs9V-3" target="wXyPlDKi4pSDwO5Pxs9V-5">
          <mxGeometry relative="1" as="geometry" />
        </mxCell>
        <mxCell id="wXyPlDKi4pSDwO5Pxs9V-3" value="Hubungkan &lt;br&gt;WEMOS ESP8266 &lt;br&gt;ke PC" style="rounded=0;whiteSpace=wrap;html=1;" vertex="1" parent="WIyWlLk6GJQsqaUBKTNV-1">
          <mxGeometry x="150" y="370" width="120" height="60" as="geometry" />
        </mxCell>
        <mxCell id="wXyPlDKi4pSDwO5Pxs9V-8" style="edgeStyle=orthogonalEdgeStyle;rounded=0;orthogonalLoop=1;jettySize=auto;html=1;entryX=0.5;entryY=0;entryDx=0;entryDy=0;" edge="1" parent="WIyWlLk6GJQsqaUBKTNV-1" source="wXyPlDKi4pSDwO5Pxs9V-5" target="wXyPlDKi4pSDwO5Pxs9V-7">
          <mxGeometry relative="1" as="geometry" />
        </mxCell>
        <mxCell id="wXyPlDKi4pSDwO5Pxs9V-5" value="Buka IDE Arduino" style="rounded=0;whiteSpace=wrap;html=1;" vertex="1" parent="WIyWlLk6GJQsqaUBKTNV-1">
          <mxGeometry x="150" y="470" width="120" height="60" as="geometry" />
        </mxCell>
        <mxCell id="wXyPlDKi4pSDwO5Pxs9V-10" style="edgeStyle=orthogonalEdgeStyle;rounded=0;orthogonalLoop=1;jettySize=auto;html=1;entryX=0.5;entryY=0;entryDx=0;entryDy=0;" edge="1" parent="WIyWlLk6GJQsqaUBKTNV-1" source="wXyPlDKi4pSDwO5Pxs9V-7" target="wXyPlDKi4pSDwO5Pxs9V-9">
          <mxGeometry relative="1" as="geometry" />
        </mxCell>
        <mxCell id="wXyPlDKi4pSDwO5Pxs9V-7" value="Inisialisasi:&lt;div&gt;- Port USB &amp;amp; Board&lt;/div&gt;&lt;div&gt;- Library WEMOS&lt;/div&gt;" style="shape=hexagon;perimeter=hexagonPerimeter2;whiteSpace=wrap;html=1;fixedSize=1;" vertex="1" parent="WIyWlLk6GJQsqaUBKTNV-1">
          <mxGeometry x="150" y="570" width="120" height="80" as="geometry" />
        </mxCell>
        <mxCell id="wXyPlDKi4pSDwO5Pxs9V-9" value="setup()" style="ellipse;whiteSpace=wrap;html=1;aspect=fixed;" vertex="1" parent="WIyWlLk6GJQsqaUBKTNV-1">
          <mxGeometry x="170" y="690" width="80" height="80" as="geometry" />
        </mxCell>
        <mxCell id="wXyPlDKi4pSDwO5Pxs9V-13" style="edgeStyle=orthogonalEdgeStyle;rounded=0;orthogonalLoop=1;jettySize=auto;html=1;" edge="1" parent="WIyWlLk6GJQsqaUBKTNV-1" source="wXyPlDKi4pSDwO5Pxs9V-11" target="wXyPlDKi4pSDwO5Pxs9V-12">
          <mxGeometry relative="1" as="geometry" />
        </mxCell>
        <mxCell id="wXyPlDKi4pSDwO5Pxs9V-11" value="setup()" style="ellipse;whiteSpace=wrap;html=1;aspect=fixed;" vertex="1" parent="WIyWlLk6GJQsqaUBKTNV-1">
          <mxGeometry x="330" y="160" width="80" height="80" as="geometry" />
        </mxCell>
        <mxCell id="wXyPlDKi4pSDwO5Pxs9V-15" style="edgeStyle=orthogonalEdgeStyle;rounded=0;orthogonalLoop=1;jettySize=auto;html=1;entryX=0.5;entryY=0;entryDx=0;entryDy=0;" edge="1" parent="WIyWlLk6GJQsqaUBKTNV-1" source="wXyPlDKi4pSDwO5Pxs9V-12" target="wXyPlDKi4pSDwO5Pxs9V-14">
          <mxGeometry relative="1" as="geometry" />
        </mxCell>
        <mxCell id="wXyPlDKi4pSDwO5Pxs9V-12" value="- Deklarasi Variabel&lt;div&gt;- Setup pin LED dan Sensor Cahaya&lt;/div&gt;" style="rounded=0;whiteSpace=wrap;html=1;" vertex="1" parent="WIyWlLk6GJQsqaUBKTNV-1">
          <mxGeometry x="310" y="270" width="120" height="60" as="geometry" />
        </mxCell>
        <mxCell id="wXyPlDKi4pSDwO5Pxs9V-14" value="loop()" style="ellipse;whiteSpace=wrap;html=1;aspect=fixed;" vertex="1" parent="WIyWlLk6GJQsqaUBKTNV-1">
          <mxGeometry x="330" y="360" width="80" height="80" as="geometry" />
        </mxCell>
        <mxCell id="wXyPlDKi4pSDwO5Pxs9V-18" style="edgeStyle=orthogonalEdgeStyle;rounded=0;orthogonalLoop=1;jettySize=auto;html=1;entryX=0.5;entryY=0;entryDx=0;entryDy=0;" edge="1" parent="WIyWlLk6GJQsqaUBKTNV-1" source="wXyPlDKi4pSDwO5Pxs9V-16" target="wXyPlDKi4pSDwO5Pxs9V-17">
          <mxGeometry relative="1" as="geometry" />
        </mxCell>
        <mxCell id="wXyPlDKi4pSDwO5Pxs9V-16" value="loop()" style="ellipse;whiteSpace=wrap;html=1;aspect=fixed;" vertex="1" parent="WIyWlLk6GJQsqaUBKTNV-1">
          <mxGeometry x="480" y="160" width="80" height="80" as="geometry" />
        </mxCell>
        <mxCell id="wXyPlDKi4pSDwO5Pxs9V-20" style="edgeStyle=orthogonalEdgeStyle;rounded=0;orthogonalLoop=1;jettySize=auto;html=1;entryX=0.5;entryY=0;entryDx=0;entryDy=0;" edge="1" parent="WIyWlLk6GJQsqaUBKTNV-1" source="wXyPlDKi4pSDwO5Pxs9V-17" target="wXyPlDKi4pSDwO5Pxs9V-19">
          <mxGeometry relative="1" as="geometry" />
        </mxCell>
        <mxCell id="wXyPlDKi4pSDwO5Pxs9V-23" style="edgeStyle=orthogonalEdgeStyle;rounded=0;orthogonalLoop=1;jettySize=auto;html=1;entryX=0;entryY=0.5;entryDx=0;entryDy=0;" edge="1" parent="WIyWlLk6GJQsqaUBKTNV-1" source="wXyPlDKi4pSDwO5Pxs9V-17" target="wXyPlDKi4pSDwO5Pxs9V-22">
          <mxGeometry relative="1" as="geometry" />
        </mxCell>
        <mxCell id="wXyPlDKi4pSDwO5Pxs9V-17" value="ldr &amp;gt;= 500?" style="rhombus;whiteSpace=wrap;html=1;" vertex="1" parent="WIyWlLk6GJQsqaUBKTNV-1">
          <mxGeometry x="480" y="270" width="80" height="80" as="geometry" />
        </mxCell>
        <mxCell id="wXyPlDKi4pSDwO5Pxs9V-19" value="LED Nyala" style="rounded=0;whiteSpace=wrap;html=1;" vertex="1" parent="WIyWlLk6GJQsqaUBKTNV-1">
          <mxGeometry x="460" y="380" width="120" height="60" as="geometry" />
        </mxCell>
        <mxCell id="wXyPlDKi4pSDwO5Pxs9V-21" value="Ya" style="text;html=1;align=center;verticalAlign=middle;whiteSpace=wrap;rounded=0;" vertex="1" parent="WIyWlLk6GJQsqaUBKTNV-1">
          <mxGeometry x="514" y="350" width="60" height="30" as="geometry" />
        </mxCell>
        <mxCell id="wXyPlDKi4pSDwO5Pxs9V-22" value="LED Mati" style="rounded=0;whiteSpace=wrap;html=1;" vertex="1" parent="WIyWlLk6GJQsqaUBKTNV-1">
          <mxGeometry x="620" y="280" width="120" height="60" as="geometry" />
        </mxCell>
        <mxCell id="wXyPlDKi4pSDwO5Pxs9V-24" value="Tidak" style="text;html=1;align=center;verticalAlign=middle;whiteSpace=wrap;rounded=0;" vertex="1" parent="WIyWlLk6GJQsqaUBKTNV-1">
          <mxGeometry x="550" y="280" width="60" height="30" as="geometry" />
        </mxCell>
        <mxCell id="wXyPlDKi4pSDwO5Pxs9V-25" value="" style="shape=stencil(fZbdcgIhDIWfZm8zQAg/17Z9j85U606tdqz9e/tmZ0c0uJ47xP0I5JwEBl59bp8/1kNwn6fj4W39M76ctgM/DCGM++36OJ50NPDjwKvN4bh+PR6+9i/z74/n6ctp9H74nlb4nbmSKZeJCu5vngmZ6jzzNAO7cX8FVKEsBuBKrgKg9oAE8gkCbLeUhEoEQKSUDZDLeWYRKIl8MEDRmHwfyBrBG6Amyu4+kDxxMoB3jhwgYu7TVAsVkFcWCs4CTBEoF4RctKeOxHIf8IXYpikHikAIf+MNUW94AGSSaoAoFIE3AlOyeWU+p2E5S9yfQZcQILVuQOwZdJNoS9Ls3wA5u2XZTIHECqeJ9kDpSaauRiNVcAY1QhdBzeLBli5WazpkSsBLV25uRaqWRyFawTQzRRIQYirJzq5atkBqLfouwqUxLBepthWb10vrWZY6UOAeyKCCtDV625mm9gmUC4Wc3VLJMMIE1BsA2FW9JraVlQB7n3c9oMKhCLEvIM1zBPZ25/umNQ1tVEC2G+fFCC8g398O2hNQuQlVu752DBfA+q0ptnqO5JFmeuIuo9DY7KjY71UxdJV4EntifPWorW++R/dC4t7V3DlIB5cHx2bc7eb3yvX//QNFp+bHDT/+Aw==);lineShape=1;strokeColor=default;" vertex="1" parent="WIyWlLk6GJQsqaUBKTNV-1">
          <mxGeometry x="483.2185520573162" y="647.282906935737" width="4.0630780627088825" height="4.056727144658473" as="geometry" />
        </mxCell>
      </root>
    </mxGraphModel>
  </diagram>
</mxfile>
